<svg width="13" height="8" viewBox="0 0 13 8" fill="none" xmlns="http://www.w3.org/2000/svg">
<path d="M0.567657 6.52762L1.16882 7.12874C1.24892 7.20901 1.3412 7.24902 1.44552 7.24902C1.54959 7.24902 1.64182 7.20901 1.72192 7.12874L6.44769 2.40323L11.1732 7.12861C11.2534 7.20889 11.3456 7.2489 11.4498 7.2489C11.5541 7.2489 11.6463 7.20889 11.7264 7.12861L12.3275 6.52745C12.4077 6.44735 12.4478 6.35512 12.4478 6.25088C12.4478 6.14673 12.4076 6.05449 12.3275 5.97439L6.72426 0.371059C6.64416 0.290913 6.55188 0.250861 6.44769 0.250861C6.3435 0.250861 6.25139 0.290913 6.17133 0.371059L0.567657 5.97439C0.487552 6.05454 0.447753 6.14677 0.447753 6.25088C0.447753 6.35512 0.487552 6.44735 0.567657 6.52762Z" fill="#13569A"/>
</svg>
