<svg width="21" height="21" viewBox="0 0 21 21" fill="none" xmlns="http://www.w3.org/2000/svg">
<path d="M15.1279 20.685H4.12788V17.595C4.12177 16.6223 4.45034 15.677 5.05846 14.9178C5.66658 14.1585 6.51728 13.6315 7.46788 13.425L10.0379 12.855V12.045C9.54951 11.692 9.14861 11.2317 8.86603 10.6995C8.58345 10.1673 8.42672 9.57732 8.40788 8.97503C7.54051 8.09756 7.04603 6.91869 7.02788 5.68503V5.14503C7.02655 4.50953 7.15091 3.88004 7.3938 3.29279C7.63669 2.70553 7.99331 2.17211 8.44314 1.72321C8.89297 1.2743 9.42713 0.918789 10.0149 0.677117C10.6026 0.435445 11.2324 0.312387 11.8679 0.315025H12.4179C13.1901 0.310088 13.948 0.52335 14.6044 0.930256C15.2608 1.33716 15.7889 1.92117 16.1279 2.61503C16.5211 2.67038 16.8812 2.86568 17.142 3.16509C17.4028 3.4645 17.5469 3.84793 17.5479 4.24503V5.68503C17.5494 6.914 17.0766 8.09615 16.2279 8.98503C16.2145 9.4308 16.1231 9.87078 15.9579 10.285C15.7179 10.665 15.3979 11.175 15.2479 11.455C15.0498 11.6749 14.8285 11.8728 14.5879 12.045V12.855L14.8879 12.925V13.595L14.5879 13.535V19.365H9.98788V13.525L8.98788 13.745V19.365H7.98788V20.015H15.1279V20.685ZM8.37788 13.905L7.58787 14.075C6.78449 14.2528 6.06595 14.6997 5.55127 15.3417C5.0366 15.9837 4.75667 16.7822 4.75788 17.605V20.025H7.38788V18.685H8.38788L8.37788 13.905ZM10.6779 15.065V18.685H13.9679V15.055C13.5371 15.4825 12.9548 15.7224 12.3479 15.7224C11.741 15.7224 11.1587 15.4825 10.7279 15.055H10.6779V15.065ZM10.6779 12.435V13.435C10.7102 13.8492 10.8975 14.2359 11.2024 14.5179C11.5074 14.8 11.9075 14.9567 12.3229 14.9567C12.7383 14.9567 13.1384 14.8 13.4433 14.5179C13.7482 14.2359 13.9356 13.8492 13.9679 13.435V12.435C13.4484 12.6798 12.881 12.8059 12.3067 12.8041C11.7325 12.8024 11.1659 12.6729 10.6479 12.425L10.6779 12.435ZM15.6079 5.92502C13.5145 6.75083 11.2881 7.18798 9.03788 7.21502V8.85503C9.01322 9.30166 9.07991 9.74864 9.23386 10.1686C9.38781 10.5886 9.62579 10.9728 9.93325 11.2977C10.2407 11.6226 10.6112 11.8814 11.0221 12.0583C11.4329 12.2351 11.8756 12.3263 12.3229 12.3263C12.7702 12.3263 13.2128 12.2351 13.6237 12.0583C14.0346 11.8814 14.405 11.6226 14.7125 11.2977C15.02 10.9728 15.2579 10.5886 15.4119 10.1686C15.5658 9.74864 15.6325 9.30166 15.6079 8.85503V5.92502ZM16.2679 5.24503V7.92502C16.6837 7.25265 16.8988 6.4755 16.8879 5.68503V4.24503C16.8879 3.97981 16.7825 3.72545 16.595 3.53792C16.4074 3.35038 16.1531 3.24503 15.8879 3.24503H15.6679L15.5779 3.04502C15.3127 2.42134 14.8697 1.88958 14.3041 1.51612C13.7386 1.14265 13.0756 0.944024 12.3979 0.945025H11.8479C11.2986 0.943706 10.7544 1.05092 10.2467 1.26052C9.73896 1.47012 9.27764 1.77797 8.88923 2.16638C8.50082 2.55479 8.19297 3.01611 7.98337 3.52385C7.77378 4.03159 7.66656 4.57573 7.66788 5.12502V5.68503C7.6695 6.47939 7.89852 7.25669 8.32788 7.92502V6.54502H8.78788C11.0455 6.54632 13.2824 6.11522 15.3779 5.27503H15.4979L16.2679 5.24503Z" fill="#125599"/>
<path d="M20.4379 20.685H14.5579V20.025H16.4879V19.375H15.4879V13.745L14.5379 13.535V12.865L17.0679 13.425C18.0186 13.6329 18.8695 14.16 19.4789 14.9187C20.0884 15.6773 20.4198 16.6218 20.4179 17.595V20.685H20.4379ZM16.1279 13.895V18.685H17.1279V19.995H19.7579V17.595C19.7628 16.7712 19.4842 15.9708 18.9689 15.3281C18.4536 14.6853 17.733 14.2394 16.9279 14.065L16.1279 13.895Z" fill="#125599"/>
<path d="M4.47787 17.3049C6.68701 17.3049 8.47787 15.5141 8.47787 13.3049C8.47787 11.0958 6.68701 9.30493 4.47787 9.30493C2.26874 9.30493 0.477875 11.0958 0.477875 13.3049C0.477875 15.5141 2.26874 17.3049 4.47787 17.3049Z" fill="white"/>
<path d="M4.47788 17.005C6.52133 17.005 8.17788 15.3484 8.17788 13.305C8.17788 11.2615 6.52133 9.60498 4.47788 9.60498C2.43442 9.60498 0.777878 11.2615 0.777878 13.305C0.777878 15.3484 2.43442 17.005 4.47788 17.005Z" stroke="#125599" stroke-width="0.6"/>
<path d="M4.47787 11.3049V15.3049" stroke="#125599" stroke-width="0.5"/>
<path d="M6.47787 13.3049H2.47787" stroke="#125599" stroke-width="0.5"/>
</svg>
