<svg width="18" height="23" viewBox="0 0 18 23" fill="none" xmlns="http://www.w3.org/2000/svg">
<path d="M11.7575 20.8052H0.757466V17.7452C0.749492 16.7719 1.07736 15.8257 1.68579 15.0661C2.29423 14.3065 3.14599 13.7799 4.09747 13.5752L6.66747 12.9952V12.1852C6.17932 11.8343 5.77842 11.3758 5.49578 10.8452C5.21313 10.3146 5.05632 9.72605 5.03747 9.12516C4.18459 8.23493 3.71125 7.04798 3.71747 5.81516V5.27516C3.70733 4.53799 3.8682 3.8085 4.18745 3.14396C4.5067 2.47943 4.97565 1.89794 5.55747 1.44516C6.41693 0.784636 7.47359 0.432416 8.55747 0.445158H9.10747C9.87411 0.448178 10.6247 0.665048 11.2748 1.07137C11.925 1.4777 12.4488 2.05736 12.7875 2.74516C13.1816 2.7985 13.5428 2.99322 13.804 3.29308C14.0653 3.59293 14.2086 3.97748 14.2075 4.37516V5.79516C14.2085 7.02699 13.7359 8.21208 12.8875 9.10516C12.8768 9.55125 12.7853 9.99171 12.6175 10.4052C12.3775 10.7852 12.0575 11.2852 11.9075 11.5652C11.7157 11.7906 11.4975 11.992 11.2575 12.1652V12.9752L11.5575 13.0452V13.7452L11.2675 13.6452V19.4852H6.66747V13.6552L5.66747 13.8752V19.4852H4.66747V20.1452H11.7675V20.8052H11.7575ZM5.00747 14.0152L4.22747 14.1952C3.41896 14.3702 2.69572 14.8192 2.18006 15.466C1.66439 16.1129 1.38795 16.918 1.39747 17.7452V20.1452H4.01747V18.8252H5.01747L5.00747 14.0152ZM7.26747 15.1752V18.8252H10.5575V15.1752C10.3481 15.3913 10.0982 15.5641 9.82198 15.6836C9.54578 15.8032 9.24874 15.8671 8.94783 15.8717C8.64692 15.8764 8.34805 15.8217 8.0683 15.7107C7.78855 15.5998 7.53341 15.4348 7.31747 15.2252L7.26747 15.1752ZM7.26747 12.5552V13.5552C7.29978 13.9693 7.4871 14.356 7.79204 14.6381C8.09697 14.9201 8.49708 15.0768 8.91247 15.0768C9.32786 15.0768 9.72796 14.9201 10.0329 14.6381C10.3378 14.356 10.5252 13.9693 10.5575 13.5552V12.5552C10.0415 12.7922 9.48032 12.915 8.91247 12.915C8.34461 12.915 7.78346 12.7922 7.26747 12.5552ZM12.2675 6.03516C10.1758 6.86664 7.94828 7.304 5.69747 7.32516V8.97516C5.74382 9.81505 6.11013 10.6053 6.7211 11.1835C7.33207 11.7616 8.14129 12.0838 8.98247 12.0838C9.82364 12.0838 10.6329 11.7616 11.2438 11.1835C11.8548 10.6053 12.2211 9.81505 12.2675 8.97516V6.03516ZM12.9275 5.35516V8.03516C13.3554 7.36669 13.5811 6.58885 13.5775 5.79516V4.37516C13.5775 4.10994 13.4721 3.85559 13.2846 3.66805C13.097 3.48052 12.8427 3.37516 12.5775 3.37516H12.3575L12.2675 3.18516C11.9984 2.56223 11.5531 2.03156 10.9863 1.65845C10.4195 1.28534 9.75602 1.08607 9.07747 1.08516H8.52747C7.4214 1.08779 6.36124 1.52765 5.57819 2.30882C4.79515 3.09 4.35274 4.1491 4.34747 5.25516V5.79516C4.34626 6.58993 4.57551 7.36801 5.00747 8.03516V6.67516H5.46747C7.72507 6.67646 9.96203 6.24536 12.0575 5.40516L12.1775 5.35516H12.9275Z" fill="#125599"/>
<path d="M17.0976 20.8051H11.2676V20.1451H13.1976V19.4951H12.1976V13.8751L11.2676 13.6651V12.9951L13.7976 13.5551C14.7442 13.7702 15.5883 14.3037 16.1889 15.0663C16.7895 15.8289 17.1103 16.7745 17.0976 17.7451V20.8251V20.8051ZM12.8176 14.0151V18.8251H13.8176V20.1451H16.4476V17.7451C16.4525 16.9213 16.1739 16.1209 15.6586 15.4782C15.1434 14.8355 14.4227 14.3895 13.6176 14.2151L12.8176 14.0151Z" fill="#125599"/>
<path d="M5.55762 17.6053L6.68762 15.9653L7.02762 15.8853H11.3976L12.5576 17.7553L5.72762 17.8253L5.55762 17.6053Z" fill="white"/>
<path d="M12.4377 17.8853H5.1377V22.1853H12.4377V17.8853Z" fill="white"/>
<path d="M9.7574 22.5953H9.4474C9.43346 22.5967 9.41937 22.5951 9.40606 22.5907C9.39275 22.5863 9.38051 22.5792 9.37014 22.5697C9.35976 22.5603 9.35149 22.5488 9.34585 22.536C9.34021 22.5231 9.33733 22.5093 9.3374 22.4953C9.3374 22.4661 9.34899 22.4381 9.36962 22.4175C9.39025 22.3968 9.41823 22.3853 9.4474 22.3853H9.7574C9.78658 22.3853 9.81456 22.3968 9.83519 22.4175C9.85581 22.4381 9.8674 22.4661 9.8674 22.4953C9.86747 22.5093 9.8646 22.5231 9.85896 22.536C9.85332 22.5488 9.84504 22.5603 9.83467 22.5697C9.8243 22.5792 9.81206 22.5863 9.79875 22.5907C9.78544 22.5951 9.77135 22.5967 9.7574 22.5953Z" fill="#125599" stroke="#125599" stroke-width="0.3"/>
<path d="M12.5676 22.5951H11.5676C11.5536 22.5965 11.5395 22.595 11.5262 22.5906C11.5129 22.5862 11.5007 22.579 11.4903 22.5696C11.4799 22.5602 11.4716 22.5487 11.466 22.5358C11.4604 22.523 11.4575 22.5091 11.4576 22.4951C11.4576 22.4659 11.4691 22.438 11.4898 22.4173C11.5104 22.3967 11.5384 22.3851 11.5676 22.3851H12.4676V17.9651H5.46756V22.3851H8.70756C8.73673 22.3851 8.76471 22.3967 8.78534 22.4173C8.80597 22.438 8.81756 22.4659 8.81756 22.4951C8.81506 22.5225 8.80237 22.548 8.78201 22.5665C8.76165 22.585 8.73508 22.5952 8.70756 22.5951H5.35756C5.34361 22.5965 5.32953 22.595 5.31621 22.5906C5.3029 22.5862 5.29066 22.579 5.28029 22.5696C5.26992 22.5602 5.26164 22.5487 5.25601 22.5358C5.25037 22.523 5.24749 22.5091 5.24756 22.4951V17.8551C5.24756 17.8259 5.25915 17.798 5.27978 17.7773C5.30041 17.7567 5.32839 17.7451 5.35756 17.7451H12.5676C12.5967 17.7451 12.6247 17.7567 12.6453 17.7773C12.666 17.798 12.6776 17.8259 12.6776 17.8551V22.4951C12.6776 22.5091 12.6748 22.523 12.6691 22.5358C12.6635 22.5487 12.6552 22.5602 12.6448 22.5696C12.6345 22.579 12.6222 22.5862 12.6089 22.5906C12.5956 22.595 12.5815 22.5965 12.5676 22.5951Z" fill="#125599" stroke="#125599" stroke-width="0.3"/>
<path d="M10.8076 22.5953H10.4976C10.4841 22.5969 10.4704 22.5954 10.4575 22.5909C10.4446 22.5865 10.433 22.5792 10.4233 22.5695C10.4137 22.5599 10.4064 22.5482 10.4019 22.5353C10.3975 22.5225 10.396 22.5088 10.3976 22.4953C10.3962 22.4813 10.3977 22.4672 10.4021 22.4539C10.4065 22.4406 10.4137 22.4284 10.4231 22.418C10.4325 22.4076 10.444 22.3993 10.4569 22.3937C10.4697 22.3881 10.4836 22.3852 10.4976 22.3853H10.8076C10.8368 22.3853 10.8648 22.3968 10.8854 22.4175C10.906 22.4381 10.9176 22.4661 10.9176 22.4953C10.9177 22.5093 10.9148 22.5231 10.9092 22.536C10.9035 22.5488 10.8952 22.5603 10.8849 22.5698C10.8745 22.5792 10.8623 22.5863 10.8489 22.5907C10.8356 22.5951 10.8216 22.5967 10.8076 22.5953Z" fill="#125599" stroke="#125599" stroke-width="0.3"/>
<path d="M12.5676 17.9652H5.35756C5.32839 17.9652 5.30041 17.9536 5.27978 17.933C5.25915 17.9124 5.24756 17.8844 5.24756 17.8552L6.40756 15.9152C6.41734 15.9002 6.43066 15.8878 6.44635 15.8791C6.46204 15.8703 6.47962 15.8656 6.49756 15.8652H11.3876C11.4055 15.8656 11.4231 15.8703 11.4388 15.8791C11.4545 15.8878 11.4678 15.9002 11.4776 15.9152L12.6376 17.8552C12.6559 17.8739 12.6661 17.8991 12.6661 17.9252C12.6661 17.9514 12.6559 17.9765 12.6376 17.9952H12.5776L12.5676 17.9652ZM5.56756 17.7452H12.4076L11.4076 16.0252H6.57756L5.56756 17.7452Z" fill="#125599" stroke="#125599" stroke-width="0.3"/>
<path d="M9.7374 17.9652H8.1874C8.1608 17.9608 8.13646 17.9475 8.11832 17.9276C8.10017 17.9076 8.08928 17.8821 8.0874 17.8552L8.3674 15.9152C8.37176 15.8913 8.38394 15.8694 8.40204 15.8531C8.42014 15.8369 8.44313 15.827 8.4674 15.8252H9.4674C9.49342 15.8248 9.51875 15.8336 9.53889 15.8501C9.55903 15.8665 9.57267 15.8896 9.5774 15.9152L9.8574 17.8552C9.86037 17.8829 9.85273 17.9107 9.83603 17.9329C9.81933 17.9552 9.7948 17.9703 9.7674 17.9752L9.7374 17.9652ZM8.2674 17.7452H9.5674L9.3174 16.0252H8.5174L8.2674 17.7452Z" fill="#125599" stroke="#125599" stroke-width="0.3"/>
<path d="M9.73749 19.5051C9.72811 19.5096 9.71787 19.5119 9.70749 19.5119C9.69711 19.5119 9.68687 19.5096 9.67749 19.5051L8.95749 19.0351L8.24749 19.5051C8.22713 19.5241 8.20033 19.5347 8.17249 19.5347C8.14465 19.5347 8.11785 19.5241 8.09749 19.5051C8.09315 19.4854 8.09315 19.4649 8.09749 19.4451V17.8551C8.09749 17.8259 8.10908 17.798 8.12971 17.7773C8.15034 17.7567 8.17832 17.7451 8.20749 17.7451H9.75749C9.77151 17.745 9.78538 17.7479 9.79822 17.7536C9.81105 17.7592 9.82256 17.7675 9.83199 17.7778C9.84141 17.7882 9.84856 17.8005 9.85295 17.8138C9.85735 17.8271 9.85889 17.8412 9.85749 17.8551V19.3951C9.85889 19.4091 9.85735 19.4232 9.85295 19.4365C9.84856 19.4498 9.84141 19.462 9.83199 19.4724C9.82256 19.4828 9.81105 19.491 9.79822 19.4967C9.78538 19.5023 9.77151 19.5052 9.75749 19.5051H9.73749ZM8.95749 18.7851H9.01749L9.62749 19.1951V17.9651H8.26749V19.1951L8.86749 18.7951H8.92749L8.95749 18.7851Z" fill="#125599" stroke="#125599" stroke-width="0.3"/>
<path d="M7.51772 21.8251C7.50377 21.8265 7.48968 21.825 7.47637 21.8206C7.46306 21.8162 7.45082 21.809 7.44045 21.7996C7.43008 21.7902 7.4218 21.7787 7.41616 21.7658C7.41052 21.753 7.40765 21.7391 7.40772 21.7251V20.5851C7.40772 20.5559 7.41931 20.5279 7.43994 20.5073C7.46056 20.4867 7.48854 20.4751 7.51772 20.4751C7.53173 20.475 7.54561 20.4779 7.55844 20.4835C7.57128 20.4892 7.58278 20.4975 7.59221 20.5078C7.60164 20.5182 7.60879 20.5304 7.61318 20.5438C7.61757 20.5571 7.61912 20.5712 7.61772 20.5851V21.7251C7.61772 21.7516 7.60718 21.7771 7.58843 21.7958C7.56967 21.8146 7.54424 21.8251 7.51772 21.8251Z" fill="#125599" stroke="#125599" stroke-width="0.3"/>
<path d="M7.81743 20.9952C7.79486 21.0036 7.77 21.0036 7.74743 20.9952L7.51743 20.7652L7.28743 20.9952C7.26649 21.0071 7.24221 21.0118 7.21834 21.0086C7.19446 21.0053 7.1723 20.9944 7.15527 20.9773C7.13823 20.9603 7.12726 20.9381 7.12403 20.9143C7.12081 20.8904 7.12552 20.8661 7.13743 20.8452L7.43743 20.5452C7.45779 20.5262 7.4846 20.5156 7.51243 20.5156C7.54027 20.5156 7.56707 20.5262 7.58743 20.5452L7.89743 20.8452C7.91641 20.8655 7.92696 20.8923 7.92696 20.9202C7.92696 20.948 7.91641 20.9748 7.89743 20.9952C7.87155 21.0043 7.84331 21.0043 7.81743 20.9952Z" fill="#125599" stroke="#125599" stroke-width="0.3"/>
<path d="M6.33745 21.8251C6.32393 21.8267 6.31022 21.8252 6.29735 21.8208C6.28449 21.8163 6.27281 21.809 6.26318 21.7994C6.25355 21.7897 6.24623 21.7781 6.24178 21.7652C6.23732 21.7523 6.23584 21.7386 6.23745 21.7251V20.5851C6.23604 20.5712 6.23759 20.5571 6.24199 20.5438C6.24638 20.5304 6.25352 20.5182 6.26295 20.5078C6.27238 20.4975 6.28389 20.4892 6.29672 20.4835C6.30955 20.4779 6.32343 20.475 6.33745 20.4751C6.36662 20.4751 6.3946 20.4867 6.41523 20.5073C6.43586 20.5279 6.44745 20.5559 6.44745 20.5851V21.7251C6.44495 21.7525 6.43226 21.778 6.4119 21.7965C6.39153 21.815 6.36497 21.8252 6.33745 21.8251Z" fill="#125599" stroke="#125599" stroke-width="0.3"/>
<path d="M6.02745 20.9951C6.00005 20.9926 5.97457 20.9799 5.95606 20.9596C5.93755 20.9392 5.92734 20.9126 5.92745 20.8851C5.91741 20.8594 5.91741 20.8308 5.92745 20.8051L6.23745 20.5051C6.25781 20.4861 6.28462 20.4756 6.31245 20.4756C6.34029 20.4756 6.36709 20.4861 6.38745 20.5051L6.68745 20.8051C6.69936 20.8261 6.70407 20.8503 6.70085 20.8742C6.69763 20.8981 6.68666 20.9202 6.66962 20.9373C6.65258 20.9543 6.63042 20.9653 6.60655 20.9685C6.58267 20.9717 6.5584 20.967 6.53745 20.9551L6.30745 20.7251L6.07745 20.9551C6.06472 20.9727 6.04743 20.9866 6.02745 20.9951Z" fill="#125599" stroke="#125599" stroke-width="0.3"/>
</svg>
